<svg width="20" height="20" viewBox="0 0 20 20" fill="none" xmlns="http://www.w3.org/2000/svg">
<path fill-rule="evenodd" clip-rule="evenodd" d="M19.054 7.77098C19.7614 8.43598 20.1305 9.82626 19.4538 10.8539C20.438 12.3953 20.0997 14.3901 18.3773 15.327C18.5926 16.0525 18.4388 16.6267 18.2542 16.9592C17.8852 17.7148 17.147 18.1983 16.2858 18.2588C16.1012 18.6819 15.5169 19.5887 14.4404 19.8909C13.4561 20.1327 12.2258 19.9816 11.3954 19.3469C10.9033 18.9539 10.6572 18.4099 10.688 17.8055V14.4203H13.1486L14.0098 15.2666C13.5176 16.0222 14.1328 17.1103 15.0555 17.08C15.7014 17.08 16.255 16.536 16.255 15.8711C16.2858 14.9644 15.2093 14.3599 14.4404 14.8132L13.4869 13.8763C13.4254 13.8158 13.3639 13.7856 13.2716 13.7856H11.3031H10.688V12.4256H15.117C15.24 12.9393 15.7322 13.302 16.2858 13.302C17.8852 13.2416 17.8852 10.9748 16.2858 10.9144C15.7322 10.9144 15.24 11.3073 15.117 11.8211H11.3031H10.688V9.43331H10.9955H11.3031H15.117C15.4861 10.7632 17.4853 10.5214 17.5161 9.13107C17.4853 7.74082 15.4861 7.499 15.117 8.82883H11.3031H10.688V7.31762H13.2716C13.3639 7.31762 13.4254 7.28746 13.4869 7.22701L14.4096 6.32029C14.5941 6.44115 14.8094 6.5016 15.0247 6.5016C16.6241 6.44115 16.6241 4.17434 15.0247 4.11392C14.102 4.08367 13.4869 5.14151 13.9482 5.89712L13.1178 6.71314H10.6572V1.78667C10.688 1.39375 10.8418 0.879941 11.2416 0.487027C12.3796 -0.540654 14.4711 0.184786 15.117 1.48442C16.5011 1.60529 17.3315 2.69339 17.2085 4.05348C18.6541 4.80908 19.5461 6.32029 19.054 7.77098ZM5.61302 1.54487C6.22817 0.21504 8.35042 -0.540563 9.48844 0.487027C9.88828 0.849687 10.0421 1.39375 10.0113 1.75641V17.7752C10.1036 19.5585 7.70452 20.2234 6.25892 19.8305C5.18242 19.5282 4.62879 18.6215 4.41349 18.1984C3.58304 18.1379 2.81411 17.6543 2.44502 16.9289C2.29124 16.5662 2.13745 16.0222 2.32199 15.2969C1.39927 14.8435 0.784129 13.9368 0.691857 12.8789C0.630342 12.1837 0.845643 11.4886 1.27625 10.9144C1.03019 10.5214 0.876401 10.068 0.876401 9.58452C0.876401 8.73822 1.33776 8.13373 1.64533 7.80124C1.49155 7.31771 1.33776 6.25987 2.01442 5.35314C2.53729 4.65796 3.27547 4.38591 3.76758 4.2953C3.70607 3.32807 3.89061 2.60272 4.35197 2.08891C4.50576 1.93779 4.96712 1.57513 5.61302 1.54487ZM6.47423 19.2562C7.18164 19.4678 8.31966 19.3469 8.96557 18.833C9.30389 18.5611 9.45768 18.1984 9.45768 17.8055V1.78667C9.33465 0.124337 7.02786 0.366161 6.25892 1.60529C6.7818 1.78667 7.27391 2.20977 7.67376 2.8747C7.73527 3.02582 7.70452 3.23745 7.55073 3.29787C7.39694 3.35832 7.2124 3.32807 7.12013 3.17694C6.53574 2.08891 5.48999 1.84711 4.78257 2.48185C4.41349 2.8747 4.29046 3.56986 4.41349 4.47658C4.41349 4.56729 4.41349 4.65796 4.35197 4.71841C4.29046 4.77882 4.22894 4.83927 4.13667 4.83927C3.8291 4.86953 3.06017 5.02065 2.53729 5.7158C1.82988 6.65272 2.29124 7.74082 2.29124 7.74082C2.35275 7.86169 2.32199 8.01281 2.22972 8.10348C0.937915 9.22177 1.46079 11.1863 3.3985 11.7304C3.55228 11.7606 3.64456 11.9419 3.6138 12.0931C3.3985 12.7278 1.89139 11.67 1.67609 11.398C0.876401 12.6069 1.46079 14.3297 2.81411 14.8435C2.9679 14.9039 3.06017 15.055 2.99865 15.2062C2.75259 15.9013 2.87562 16.385 3.02941 16.6569C3.33698 17.2614 3.95213 17.6241 4.65955 17.6241C4.78258 17.6241 4.9056 17.6845 4.93636 17.8055L4.94015 17.8131C4.94381 17.8207 4.94836 17.8303 4.95383 17.842C5.05853 18.0649 5.49873 19.0025 6.47423 19.2562ZM15.6091 5.32289C15.5784 4.53709 14.4403 4.53709 14.4096 5.32289C14.4403 6.07849 15.5784 6.10875 15.6091 5.32289ZM15.6091 15.8409C15.5784 15.0551 14.4403 15.0551 14.4096 15.8409C14.4403 16.6267 15.5784 16.6267 15.6091 15.8409ZM16.8394 9.13107C16.8087 8.3453 15.6706 8.3453 15.6399 9.13107C15.6706 9.91693 16.8394 9.91693 16.8394 9.13107ZM16.8394 12.1233C16.8087 11.3375 15.6706 11.3375 15.6399 12.1233C15.6706 12.8789 16.8394 12.8789 16.8394 12.1233ZM4.59803 9.4334C5.67454 10.0379 7.02789 9.73564 7.82755 8.76847C7.91982 8.64754 7.91982 8.43598 7.76603 8.3453C7.64303 8.25469 7.4277 8.25469 7.33546 8.40581C6.1359 9.91702 3.79837 9.01029 4.07516 7.10614C4.10595 6.95502 3.98289 6.77365 3.8291 6.77365C3.67531 6.74348 3.4908 6.86435 3.4908 7.01547C3.30623 7.98261 3.76759 8.91959 4.59803 9.4334ZM5.45924 13.9972C5.52075 12.8184 6.65877 11.7606 8.01209 11.821C8.41193 11.821 8.41193 12.3953 8.01209 12.4255C7.48922 12.4255 7.02786 12.5766 6.68953 12.8788C6.28968 13.2113 6.1359 13.6949 6.07438 14.0878C6.3512 14.1785 6.62801 14.2692 6.87407 14.4505C7.67376 14.9945 8.10436 15.9012 8.01209 16.8685C7.98133 17.0498 7.82755 17.1707 7.67376 17.1405C7.48922 17.1102 7.36619 16.9591 7.39694 16.808C7.58149 15.2666 5.85908 14.0878 4.44425 14.8132C4.29046 14.8737 4.10591 14.8132 4.0444 14.6621C3.79834 14.0878 5.09015 13.9972 5.45924 13.9972ZM5.42848 5.47401C6.38195 4.9602 7.51997 5.80651 7.30467 6.86435C7.24313 7.25726 7.82755 7.37813 7.91982 6.98522C8.25815 5.44382 6.53574 4.17443 5.15166 4.9602C4.78254 5.17177 5.05939 5.68564 5.42848 5.47401Z" fill="#A772F7"/>
</svg>
