<svg width="122" height="48" viewBox="0 0 122 48" fill="none" xmlns="http://www.w3.org/2000/svg">
<path d="M0.142883 12C0.142883 5.37258 5.51134 0 12.1337 0H36.1152C42.7375 0 48.106 5.37258 48.106 12V36C48.106 42.6274 42.7375 48 36.1152 48H12.1337C5.51134 48 0.142883 42.6274 0.142883 36V12Z" fill="#5A60F6"/>
<path fill-rule="evenodd" clip-rule="evenodd" d="M37.6938 20.6565C38.755 21.654 39.3086 23.7394 38.2936 25.2809C39.77 27.593 39.2624 30.5852 36.6789 31.9905C37.0018 33.0787 36.7711 33.94 36.4943 34.4388C35.9407 35.5722 34.8334 36.2975 33.5416 36.3882C33.2648 37.0229 32.3882 38.383 30.7735 38.8363C29.2971 39.1991 27.4517 38.9724 26.206 38.0203C25.4678 37.4309 25.0987 36.6149 25.1449 35.7082V30.6304H28.8358L30.1276 31.8999C29.3894 33.0333 30.3121 34.6655 31.6962 34.6201C32.665 34.6201 33.4954 33.804 33.4954 32.8066C33.5416 31.4465 31.9269 30.5398 30.7735 31.2199L29.3432 29.8145C29.251 29.7237 29.1587 29.6785 29.0203 29.6785H26.0676H25.1449V27.6383H31.7885C31.973 28.409 32.7112 28.953 33.5416 28.953C35.9407 28.8624 35.9407 25.4622 33.5416 25.3715C32.7112 25.3715 31.973 25.9609 31.7885 26.7316H26.0676H25.1449V23.15H25.6062H26.0676H31.7885C32.342 25.1449 35.3409 24.7821 35.3871 22.6966C35.3409 20.6112 32.342 20.2485 31.7885 22.2432H26.0676H25.1449V19.9764H29.0203C29.1587 19.9764 29.251 19.9312 29.3432 19.8405L30.7273 18.4804C31.0041 18.6617 31.3271 18.7524 31.65 18.7524C34.0491 18.6617 34.0491 15.2615 31.65 15.1709C30.2659 15.1255 29.3432 16.7123 30.0352 17.8457L28.7896 19.0697H25.0987V11.68C25.1449 11.0906 25.3756 10.3199 25.9753 9.73054C27.6824 8.18902 30.8196 9.27718 31.7885 11.2266C33.8646 11.4079 35.1102 13.0401 34.9257 15.0802C37.0941 16.2136 38.432 18.4804 37.6938 20.6565ZM17.5325 11.3173C18.4552 9.32256 21.6385 8.18916 23.3456 9.73054C23.9453 10.2745 24.176 11.0906 24.1299 11.6346V35.6628C24.2683 38.3377 20.6697 39.3351 18.5013 38.7457C16.8866 38.2924 16.0561 36.9323 15.7332 36.2976C14.4875 36.2068 13.3341 35.4815 12.7805 34.3934C12.5498 33.8494 12.3191 33.0333 12.5959 31.9453C11.2118 31.2652 10.2891 29.9052 10.1507 28.3184C10.0584 27.2756 10.3814 26.2329 11.0273 25.3715C10.6582 24.7821 10.4275 24.1021 10.4275 23.3768C10.4275 22.1073 11.1196 21.2006 11.5809 20.7019C11.3502 19.9766 11.1196 18.3898 12.1346 17.0297C12.9189 15.9869 14.0261 15.5789 14.7643 15.4429C14.672 13.9921 14.9488 12.9041 15.6409 12.1334C15.8716 11.9067 16.5636 11.3627 17.5325 11.3173ZM18.8243 37.8844C19.8854 38.2017 21.5924 38.0203 22.5613 37.2496C23.0688 36.8416 23.2994 36.2976 23.2994 35.7082V11.68C23.1149 9.18651 19.6547 9.54924 18.5013 11.4079C19.2856 11.68 20.0238 12.3147 20.6236 13.3121C20.7158 13.5387 20.6697 13.8562 20.439 13.9468C20.2083 14.0375 19.9315 13.9921 19.7931 13.7654C18.9165 12.1334 17.3479 11.7707 16.2868 12.7228C15.7332 13.3121 15.5486 14.3548 15.7332 15.7149C15.7332 15.8509 15.7332 15.9869 15.6409 16.0776C15.5486 16.1682 15.4563 16.2589 15.3179 16.2589C14.8566 16.3043 13.7032 16.531 12.9189 17.5737C11.8577 18.9791 12.5498 20.6112 12.5498 20.6112C12.642 20.7925 12.5959 21.0192 12.4575 21.1552C10.5198 22.8327 11.3041 25.7795 14.2107 26.5956C14.4413 26.6409 14.5798 26.9129 14.5336 27.1396C14.2107 28.0917 11.95 26.5049 11.6271 26.097C10.4275 27.9104 11.3041 30.4945 13.3341 31.2652C13.5648 31.3559 13.7032 31.5826 13.6109 31.8092C13.2418 32.852 13.4264 33.5774 13.657 33.9854C14.1184 34.8921 15.0411 35.4361 16.1022 35.4361C16.2868 35.4361 16.4713 35.5268 16.5175 35.7082L16.5231 35.7197C16.5286 35.731 16.5355 35.7455 16.5437 35.763C16.7007 36.0974 17.361 37.5037 18.8243 37.8844ZM32.5266 16.9843C32.4805 15.8056 30.7734 15.8056 30.7273 16.9843C30.7734 18.1177 32.4805 18.1631 32.5266 16.9843ZM32.5266 32.7613C32.4805 31.5827 30.7734 31.5827 30.7273 32.7613C30.7734 33.9401 32.4805 33.9401 32.5266 32.7613ZM34.3721 22.6966C34.3259 21.518 32.6189 21.518 32.5727 22.6966C32.6189 23.8754 34.3721 23.8754 34.3721 22.6966ZM34.3721 27.185C34.3259 26.0063 32.6189 26.0063 32.5727 27.185C32.6189 28.3184 34.3721 28.3184 34.3721 27.185ZM16.01 23.1501C17.6247 24.0568 19.6548 23.6035 20.8542 22.1527C20.9926 21.9713 20.9926 21.654 20.762 21.518C20.5775 21.382 20.2545 21.382 20.1161 21.6087C18.3168 23.8755 14.8105 22.5154 15.2257 19.6592C15.2718 19.4325 15.0873 19.1605 14.8566 19.1605C14.6259 19.1152 14.3491 19.2965 14.3491 19.5232C14.0723 20.9739 14.7643 22.3794 16.01 23.1501ZM17.3018 29.9958C17.394 28.2276 19.1011 26.6409 21.1311 26.7315C21.7308 26.7315 21.7308 27.593 21.1311 27.6382C20.3467 27.6382 19.6547 27.8649 19.1472 28.3183C18.5474 28.817 18.3168 29.5424 18.2245 30.1317C18.6397 30.2678 19.0549 30.4038 19.424 30.6758C20.6236 31.4918 21.2695 32.8519 21.1311 34.3027C21.0849 34.5747 20.8542 34.7561 20.6236 34.7107C20.3467 34.6653 20.1622 34.4386 20.2083 34.212C20.4852 31.8999 17.9015 30.1317 15.7793 31.2199C15.5486 31.3105 15.2718 31.2199 15.1795 30.9932C14.8104 30.1317 16.7481 29.9958 17.3018 29.9958ZM17.2556 17.211C18.6859 16.4403 20.3929 17.7098 20.0699 19.2965C19.9776 19.8859 20.8542 20.0672 20.9926 19.4778C21.5001 17.1657 18.9165 15.2616 16.8404 16.4403C16.2867 16.7577 16.702 17.5285 17.2556 17.211Z" fill="white"/>
<path d="M113.981 35.7834L111.214 35.9538C111.166 35.7171 111.065 35.504 110.909 35.3146C110.752 35.1205 110.547 34.9666 110.291 34.853C110.04 34.7346 109.74 34.6754 109.39 34.6754C108.921 34.6754 108.526 34.7748 108.205 34.9737C107.883 35.1678 107.722 35.4282 107.722 35.7549C107.722 36.0154 107.826 36.2355 108.034 36.4155C108.243 36.5954 108.6 36.7398 109.106 36.8487L111.079 37.2464C112.139 37.4642 112.929 37.8146 113.449 38.2976C113.97 38.7805 114.23 39.415 114.23 40.201C114.23 40.9159 114.019 41.5433 113.598 42.0831C113.182 42.6228 112.609 43.0442 111.881 43.3473C111.157 43.6456 110.322 43.7947 109.376 43.7947C107.933 43.7947 106.783 43.4941 105.927 42.8927C105.075 42.2867 104.576 41.4628 104.429 40.4211L107.403 40.2649C107.493 40.7052 107.71 41.0414 108.056 41.2734C108.401 41.5007 108.843 41.6143 109.383 41.6143C109.913 41.6143 110.338 41.5125 110.66 41.3089C110.987 41.1006 111.152 40.8331 111.157 40.5064C111.152 40.2317 111.036 40.0068 110.809 39.8317C110.582 39.6517 110.232 39.5144 109.759 39.4197L107.871 39.0433C106.807 38.8302 106.014 38.4609 105.494 37.9353C104.978 37.4098 104.72 36.7398 104.72 35.9254C104.72 35.2246 104.909 34.621 105.288 34.1143C105.671 33.6077 106.208 33.2171 106.899 32.9424C107.594 32.6678 108.408 32.5305 109.34 32.5305C110.717 32.5305 111.8 32.8217 112.59 33.4041C113.385 33.9865 113.849 34.7796 113.981 35.7834Z" fill="#5A60F6"/>
<path d="M96.2235 43.7594C95.3955 43.7594 94.6456 43.5463 93.9738 43.1202C93.3067 42.6893 92.7768 42.0572 92.3841 41.2239C91.9961 40.3858 91.8021 39.3583 91.8021 38.1415C91.8021 36.8915 92.0032 35.8522 92.4054 35.0236C92.8075 34.1903 93.3422 33.5676 94.0093 33.1557C94.6811 32.739 95.4168 32.5307 96.2164 32.5307C96.8267 32.5307 97.3353 32.6349 97.7422 32.8432C98.1538 33.0468 98.485 33.3025 98.7357 33.6102C98.9912 33.9133 99.1852 34.2116 99.3177 34.5051H99.4099V29.0364H102.426V43.5818H99.4454V41.8347H99.3177C99.1757 42.1377 98.9747 42.4384 98.7144 42.7367C98.459 43.0302 98.1254 43.2741 97.7138 43.4682C97.3069 43.6623 96.8101 43.7594 96.2235 43.7594ZM97.1815 41.3517C97.6688 41.3517 98.0805 41.2191 98.4164 40.954C98.757 40.6841 99.0172 40.3077 99.197 39.8247C99.3815 39.3418 99.4738 38.776 99.4738 38.1273C99.4738 37.4786 99.3839 36.9152 99.2041 36.4369C99.0243 35.9587 98.7641 35.5894 98.4235 35.329C98.0828 35.0686 97.6688 34.9384 97.1815 34.9384C96.6848 34.9384 96.266 35.0733 95.9254 35.3432C95.5847 35.6131 95.3269 35.9871 95.1518 36.4654C94.9768 36.9436 94.8893 37.4976 94.8893 38.1273C94.8893 38.7618 94.9768 39.3228 95.1518 39.8105C95.3316 40.2935 95.5895 40.6723 95.9254 40.9469C96.266 41.2168 96.6848 41.3517 97.1815 41.3517Z" fill="#5A60F6"/>
<path d="M82.7981 37.2748V43.5817H79.7748V32.6726H82.6561V34.5973H82.7839C83.0252 33.9628 83.4297 33.4609 83.9974 33.0916C84.5652 32.7175 85.2536 32.5305 86.0626 32.5305C86.8196 32.5305 87.4796 32.6962 88.0426 33.0277C88.6056 33.3591 89.0433 33.8326 89.3555 34.4481C89.6678 35.0589 89.8239 35.7881 89.8239 36.6356V43.5817H86.8007V37.1754C86.8054 36.5078 86.6351 35.987 86.2897 35.6129C85.9443 35.2341 85.4688 35.0447 84.8632 35.0447C84.4564 35.0447 84.0968 35.1323 83.7845 35.3075C83.477 35.4827 83.2357 35.7384 83.0607 36.0746C82.8903 36.406 82.8028 36.8061 82.7981 37.2748Z" fill="#5A60F6"/>
<path d="M74.3298 43.5817V32.6727H77.353V43.5817H74.3298ZM75.8485 31.2664C75.399 31.2664 75.0134 31.1173 74.6917 30.819C74.3747 30.5159 74.2162 30.1537 74.2162 29.7323C74.2162 29.3156 74.3747 28.9582 74.6917 28.6599C75.0134 28.3568 75.399 28.2053 75.8485 28.2053C76.298 28.2053 76.6812 28.3568 76.9982 28.6599C77.3199 28.9582 77.4808 29.3156 77.4808 29.7323C77.4808 30.1537 77.3199 30.5159 76.9982 30.819C76.6812 31.1173 76.298 31.2664 75.8485 31.2664Z" fill="#5A60F6"/>
<path d="M56.0999 29.0364H59.8896L63.8922 38.8091H64.0625L68.0651 29.0364H71.8548V43.5818H68.8741V34.1145H68.7535L64.9922 43.5108H62.9625L59.2012 34.079H59.0805V43.5818H56.0999V29.0364Z" fill="#5A60F6"/>
<path d="M121.658 8.67272V10.9454H115.094V8.67272H121.658ZM116.584 6.05908H119.607V16.2295C119.607 16.5089 119.65 16.7267 119.735 16.8829C119.82 17.0345 119.939 17.141 120.09 17.2025C120.246 17.2641 120.426 17.2949 120.629 17.2949C120.771 17.2949 120.913 17.283 121.055 17.2594C121.197 17.231 121.306 17.2097 121.382 17.1954L121.857 19.4469C121.706 19.4942 121.493 19.5487 121.218 19.6102C120.944 19.6765 120.611 19.7168 120.218 19.731C119.489 19.7594 118.851 19.6623 118.302 19.4398C117.758 19.2172 117.334 18.8716 117.031 18.4028C116.729 17.9341 116.58 17.3422 116.584 16.6273V6.05908Z" fill="#5A60F6"/>
<path d="M106.413 13.275V19.5818H103.389V5.03638H106.328V10.5975H106.455C106.701 9.95352 107.099 9.44926 107.648 9.08467C108.196 8.71535 108.885 8.5307 109.713 8.5307C110.47 8.5307 111.13 8.69642 111.693 9.02785C112.261 9.35456 112.701 9.82568 113.013 10.4412C113.33 11.052 113.486 11.7835 113.481 12.6358V19.5818H110.458V13.1756C110.463 12.5032 110.292 11.98 109.947 11.606C109.606 11.2319 109.128 11.0449 108.513 11.0449C108.102 11.0449 107.737 11.1325 107.42 11.3077C107.108 11.4829 106.862 11.7386 106.682 12.0747C106.507 12.4062 106.417 12.8063 106.413 13.275Z" fill="#5A60F6"/>
<path d="M95.6539 23.8998C94.6746 23.8998 93.8348 23.7649 93.1346 23.495C92.4391 23.2299 91.8855 22.8676 91.4739 22.4084C91.0623 21.9491 90.795 21.433 90.672 20.8601L93.4681 20.4836C93.5533 20.7014 93.6881 20.905 93.8726 21.0944C94.0572 21.2838 94.3008 21.4353 94.6036 21.549C94.9111 21.6674 95.2849 21.7265 95.7249 21.7265C96.3825 21.7265 96.9243 21.5656 97.3501 21.2436C97.7806 20.9264 97.9959 20.3937 97.9959 19.6456V17.6498H97.8681C97.7357 17.9529 97.537 18.2393 97.272 18.5092C97.0071 18.7791 96.6664 18.9993 96.2501 19.1697C95.8337 19.3402 95.3369 19.4254 94.7597 19.4254C93.9412 19.4254 93.1961 19.236 92.5242 18.8572C91.8571 18.4737 91.3249 17.8889 90.9275 17.103C90.5348 16.3122 90.3384 15.3132 90.3384 14.1058C90.3384 12.87 90.5395 11.8378 90.9417 11.0092C91.3438 10.1806 91.8784 9.56035 92.5455 9.14841C93.2174 8.73648 93.9531 8.53052 94.7526 8.53052C95.363 8.53052 95.8739 8.63468 96.2856 8.84302C96.6972 9.04662 97.0284 9.3023 97.2791 9.61006C97.5346 9.91309 97.7309 10.2114 97.8681 10.5049H97.9817V8.67256H100.984V19.6882C100.984 20.6162 100.757 21.3927 100.302 22.0177C99.8482 22.6427 99.2189 23.1115 98.4146 23.424C97.615 23.7412 96.6948 23.8998 95.6539 23.8998ZM95.7178 17.1527C96.2051 17.1527 96.6167 17.0319 96.9527 16.7905C97.2933 16.5442 97.5535 16.1939 97.7333 15.7393C97.9178 15.28 98.0101 14.7308 98.0101 14.0916C98.0101 13.4524 97.9202 12.8984 97.7404 12.4297C97.5606 11.9562 97.3004 11.5892 96.9598 11.3288C96.6191 11.0684 96.2051 10.9382 95.7178 10.9382C95.221 10.9382 94.8023 11.0731 94.4617 11.343C94.121 11.6082 93.8632 11.9775 93.6881 12.451C93.5131 12.9245 93.4255 13.4713 93.4255 14.0916C93.4255 14.7213 93.5131 15.2658 93.6881 15.7251C93.8679 16.1797 94.1258 16.5324 94.4617 16.7834C94.8023 17.0296 95.221 17.1527 95.7178 17.1527Z" fill="#5A60F6"/>
<path d="M85.2979 19.5817V8.67265H88.3212V19.5817H85.2979ZM86.8166 7.2664C86.3672 7.2664 85.9816 7.11725 85.6599 6.81896C85.3429 6.51593 85.1844 6.15371 85.1844 5.73231C85.1844 5.31564 85.3429 4.95816 85.6599 4.65987C85.9816 4.35684 86.3672 4.20532 86.8166 4.20532C87.2661 4.20532 87.6493 4.35684 87.9663 4.65987C88.288 4.95816 88.4489 5.31564 88.4489 5.73231C88.4489 6.15371 88.288 6.51593 87.9663 6.81896C87.6493 7.11725 87.2661 7.2664 86.8166 7.2664Z" fill="#5A60F6"/>
<path d="M83.1458 11.7834L80.378 11.9538C80.3307 11.7171 80.229 11.504 80.0729 11.3146C79.9167 11.1205 79.7109 10.9666 79.4555 10.853C79.2047 10.7346 78.9043 10.6754 78.5542 10.6754C78.0858 10.6754 77.6907 10.7748 77.369 10.9737C77.0473 11.1678 76.8864 11.4282 76.8864 11.7549C76.8864 12.0154 76.9905 12.2355 77.1987 12.4155C77.4068 12.5954 77.764 12.7398 78.2703 12.8487L80.2432 13.2464C81.303 13.4642 82.0931 13.8146 82.6135 14.2976C83.134 14.7805 83.3942 15.415 83.3942 16.201C83.3942 16.9159 83.1836 17.5433 82.7626 18.0831C82.3462 18.6228 81.7737 19.0442 81.0451 19.3473C80.3213 19.6456 79.4862 19.7947 78.54 19.7947C77.0969 19.7947 75.9473 19.4941 75.0909 18.8927C74.2393 18.2867 73.7402 17.4628 73.5935 16.4211L76.5671 16.2649C76.6569 16.7052 76.8746 17.0414 77.22 17.2734C77.5653 17.5007 78.0077 17.6143 78.5471 17.6143C79.077 17.6143 79.5028 17.5125 79.8245 17.3089C80.1509 17.1006 80.3165 16.8331 80.3213 16.5064C80.3165 16.2317 80.2006 16.0068 79.9735 15.8317C79.7464 15.6517 79.3963 15.5144 78.9232 15.4197L77.0354 15.0433C75.9709 14.8302 75.1784 14.4609 74.658 13.9353C74.1423 13.4098 73.8845 12.7398 73.8845 11.9254C73.8845 11.2246 74.0737 10.621 74.4522 10.1143C74.8354 9.6077 75.3724 9.21707 76.0632 8.94245C76.7587 8.66783 77.5724 8.53052 78.5045 8.53052C79.8813 8.53052 80.9647 8.82171 81.7548 9.4041C82.5497 9.98648 83.0133 10.7796 83.1458 11.7834Z" fill="#5A60F6"/>
<path d="M64.6675 13.2748V19.5817H61.6442V8.67256H64.5255V10.5973H64.6533C64.8946 9.96281 65.2991 9.46091 65.8668 9.0916C66.4346 8.71754 67.123 8.53052 67.932 8.53052C68.689 8.53052 69.349 8.69624 69.912 9.02768C70.475 9.35911 70.9127 9.8326 71.2249 10.4481C71.5372 11.0589 71.6933 11.7881 71.6933 12.6356V19.5817H68.6701V13.1754C68.6748 12.5078 68.5045 11.987 68.1591 11.6129C67.8137 11.2341 67.3382 11.0447 66.7327 11.0447C66.3258 11.0447 65.9662 11.1323 65.6539 11.3075C65.3464 11.4827 65.1051 11.7384 64.9301 12.0746C64.7597 12.406 64.6722 12.8061 64.6675 13.2748Z" fill="#5A60F6"/>
<path d="M59.1728 5.03638V19.5818H56.0999V5.03638H59.1728Z" fill="#5A60F6"/>
</svg>
