<svg width="94" height="95" viewBox="0 0 94 95" fill="none" xmlns="http://www.w3.org/2000/svg">
<g clip-path="url(#clip0_247_10084)">
<path d="M83.82 48.65C84.34 50.94 86.39 52.66 88.84 52.66C91.68 52.66 94 50.35 94 47.5C94 44.65 91.69 42.34 88.84 42.34C86.39 42.34 84.34 44.06 83.82 46.35H73.6V34.95H84.21C84.84 34.95 85.36 34.44 85.36 33.8V26.78C87.65 26.26 89.37 24.21 89.37 21.76C89.37 18.92 87.06 16.6 84.21 16.6C81.36 16.6 79.05 18.91 79.05 21.76C79.05 24.21 80.77 26.26 83.06 26.78V32.66H73.6V27.23C73.6 23.74 70.76 20.9 67.27 20.9H61.84V11.44H67.72C68.24 13.73 70.29 15.45 72.74 15.45C75.58 15.45 77.9 13.14 77.9 10.29C77.9 7.44 75.59 5.13 72.74 5.13C70.29 5.13 68.24 6.85 67.72 9.14H60.7C60.07 9.14 59.55 9.65 59.55 10.29V20.9H48.15V10.68C50.44 10.16 52.16 8.11 52.16 5.66C52.16 2.82 49.84 0.5 47 0.5C44.16 0.5 41.84 2.81 41.84 5.66C41.84 8.11 43.56 10.16 45.85 10.68V20.9H34.45V10.29C34.45 9.66 33.94 9.14 33.3 9.14H26.28C25.76 6.85 23.71 5.13 21.26 5.13C18.42 5.13 16.1 7.44 16.1 10.29C16.1 13.14 18.41 15.45 21.26 15.45C23.71 15.45 25.76 13.73 26.28 11.44H32.16V20.9H26.73C23.24 20.9 20.4 23.74 20.4 27.23V32.66H10.94V26.78C13.23 26.26 14.95 24.21 14.95 21.76C14.95 18.92 12.64 16.6 9.79 16.6C6.94 16.6 4.63 18.91 4.63 21.76C4.63 24.21 6.35 26.26 8.64 26.78V33.8C8.64 34.43 9.15 34.95 9.79 34.95H20.4V46.36H10.18C9.66 44.07 7.61 42.35 5.16 42.35C2.32 42.34 0 44.66 0 47.5C0 50.34 2.31 52.66 5.16 52.66C7.61 52.66 9.66 50.94 10.18 48.65H20.4V60.06H9.79C9.16 60.06 8.64 60.57 8.64 61.21V68.23C6.35 68.75 4.63 70.8 4.63 73.25C4.63 76.09 6.94 78.41 9.79 78.41C12.64 78.41 14.95 76.1 14.95 73.25C14.95 70.8 13.23 68.75 10.94 68.23V62.35H20.4V67.78C20.4 71.27 23.24 74.11 26.73 74.11H32.16V83.57H26.28C25.76 81.28 23.71 79.56 21.26 79.56C18.42 79.56 16.1 81.87 16.1 84.72C16.1 87.57 18.41 89.88 21.26 89.88C23.71 89.88 25.76 88.16 26.28 85.87H33.3C33.93 85.87 34.45 85.36 34.45 84.72V74.1H45.86V84.32C43.57 84.84 41.85 86.89 41.85 89.34C41.85 92.18 44.16 94.5 47.01 94.5C49.86 94.5 52.17 92.19 52.17 89.34C52.17 86.89 50.45 84.84 48.16 84.32V74.1H59.57V84.71C59.57 85.34 60.08 85.86 60.72 85.86H67.74C68.26 88.15 70.31 89.87 72.76 89.87C75.6 89.87 77.92 87.56 77.92 84.71C77.92 81.86 75.61 79.55 72.76 79.55C70.31 79.55 68.26 81.27 67.74 83.56H61.86V74.1H67.29C70.78 74.1 73.62 71.26 73.62 67.77V62.34H83.08V68.22C80.79 68.74 79.07 70.79 79.07 73.24C79.07 76.08 81.38 78.4 84.23 78.4C87.08 78.4 89.39 76.09 89.39 73.24C89.39 70.79 87.67 68.74 85.38 68.22V61.2C85.38 60.57 84.87 60.05 84.23 60.05H73.6V48.65H83.82ZM88.84 44.63C90.42 44.63 91.71 45.92 91.71 47.5C91.71 49.08 90.42 50.37 88.84 50.37C87.26 50.37 85.97 49.08 85.97 47.5C85.97 45.92 87.26 44.63 88.84 44.63ZM81.34 21.75C81.34 20.17 82.63 18.88 84.21 18.88C85.79 18.88 87.08 20.17 87.08 21.75C87.08 23.33 85.79 24.62 84.21 24.62C82.63 24.62 81.34 23.33 81.34 21.75ZM72.75 7.43C74.33 7.43 75.62 8.72 75.62 10.3C75.62 11.88 74.33 13.17 72.75 13.17C71.17 13.17 69.88 11.88 69.88 10.3C69.88 8.72 71.17 7.43 72.75 7.43ZM21.25 13.16C19.67 13.16 18.38 11.87 18.38 10.29C18.38 8.71 19.67 7.42 21.25 7.42C22.83 7.42 24.12 8.71 24.12 10.29C24.12 11.87 22.83 13.16 21.25 13.16ZM6.93 21.75C6.93 20.17 8.22 18.88 9.8 18.88C11.38 18.88 12.67 20.17 12.67 21.75C12.67 23.33 11.38 24.62 9.8 24.62C8.22 24.62 6.93 23.33 6.93 21.75ZM5.16 50.37C3.58 50.37 2.29 49.08 2.29 47.5C2.29 45.92 3.58 44.63 5.16 44.63C6.74 44.63 8.03 45.92 8.03 47.5C8.03 49.08 6.74 50.37 5.16 50.37ZM12.66 73.25C12.66 74.83 11.37 76.12 9.79 76.12C8.21 76.12 6.92 74.83 6.92 73.25C6.92 71.67 8.21 70.38 9.79 70.38C11.37 70.38 12.66 71.67 12.66 73.25ZM21.25 87.57C19.67 87.57 18.38 86.28 18.38 84.7C18.38 83.12 19.67 81.83 21.25 81.83C22.83 81.83 24.12 83.12 24.12 84.7C24.12 86.28 22.83 87.57 21.25 87.57ZM72.75 81.84C74.33 81.84 75.62 83.13 75.62 84.71C75.62 86.29 74.33 87.58 72.75 87.58C71.17 87.58 69.88 86.29 69.88 84.71C69.88 83.13 71.17 81.84 72.75 81.84ZM44.13 5.66C44.13 4.08 45.42 2.79 47 2.79C48.58 2.79 49.87 4.08 49.87 5.66C49.87 7.24 48.58 8.53 47 8.53C45.42 8.53 44.13 7.24 44.13 5.66ZM49.87 89.34C49.87 90.92 48.58 92.21 47 92.21C45.42 92.21 44.13 90.92 44.13 89.34C44.13 87.76 45.42 86.47 47 86.47C48.58 86.47 49.87 87.76 49.87 89.34ZM71.32 67.77H71.31C71.31 70 69.5 71.81 67.27 71.81H26.73C24.5 71.81 22.69 70 22.69 67.77V27.23C22.69 25 24.5 23.19 26.73 23.19H67.28C69.51 23.19 71.32 25 71.32 27.23V67.77ZM87.07 73.25C87.07 74.83 85.78 76.12 84.2 76.12C82.62 76.12 81.33 74.83 81.33 73.25C81.33 71.67 82.62 70.38 84.2 70.38C85.78 70.38 87.07 71.67 87.07 73.25Z" fill="#5A60F6"/>
<path d="M71.3204 27.2299V67.7699H71.3104C71.3104 69.9999 69.5004 71.8099 67.2704 71.8099H26.7304C24.5004 71.8099 22.6904 69.9999 22.6904 67.7699V27.2299C22.6904 24.9999 24.5004 23.1899 26.7304 23.1899H67.2804C69.5104 23.1899 71.3204 24.9999 71.3204 27.2299Z" fill="#5A60F6"/>
<path d="M52.3611 40.0575C52.3611 40.384 52.4908 40.697 52.7216 40.9278C52.9524 41.1587 53.2655 41.2883 53.5919 41.2883L59.4451 41.2896C59.6048 41.3387 59.7729 41.3544 59.9389 41.3357C60.1049 41.317 60.2653 41.2643 60.41 41.1808C60.4412 41.1626 60.4589 41.1321 60.4881 41.1117C60.6658 41.0148 60.8165 40.8749 60.9264 40.7049C61.0363 40.5348 61.1019 40.34 61.1173 40.1381L61.5614 33.2588C61.582 32.9332 61.4726 32.6128 61.2571 32.3679C61.0416 32.123 60.7378 31.9737 60.4123 31.9527C60.0868 31.9316 59.7662 32.0407 59.521 32.2558C59.2759 32.471 59.1261 32.7746 59.1047 33.1001L58.8673 36.7786C56.7009 34.3778 53.8577 32.6901 50.7127 31.9381C47.5677 31.1861 44.2686 31.4051 41.2506 32.5662C38.2325 33.7274 35.6374 35.7761 33.8074 38.4421C31.9774 41.1082 30.9986 44.2664 31 47.5C31 47.8265 31.1297 48.1395 31.3605 48.3703C31.5913 48.6012 31.9044 48.7308 32.2308 48.7308C32.5572 48.7308 32.8703 48.6012 33.1011 48.3703C33.3319 48.1395 33.4616 47.8265 33.4616 47.5C33.4568 44.7201 34.3094 42.0063 35.9031 39.7286C37.4968 37.4508 39.7541 35.7199 42.3673 34.7717C44.9805 33.8235 47.8226 33.7042 50.5061 34.43C53.1896 35.1558 55.584 36.6915 57.363 38.8276L53.5919 38.8268C53.2654 38.8268 52.9524 38.9564 52.7216 39.1873C52.4908 39.4181 52.3611 39.7311 52.3611 40.0575Z" fill="white"/>
<path d="M61.7697 46.2692C61.4433 46.2692 61.1303 46.3988 60.8994 46.6297C60.6686 46.8605 60.5389 47.1735 60.5389 47.5C60.5437 50.2799 59.6911 52.9937 58.0974 55.2714C56.5037 57.5492 54.2465 59.2801 51.6332 60.2283C49.02 61.1765 46.178 61.2958 43.4944 60.57C40.8109 59.8442 38.4165 58.3085 36.6375 56.1723L40.4087 56.1733C40.7351 56.1733 41.0482 56.0436 41.279 55.8128C41.5098 55.5819 41.6395 55.2689 41.6395 54.9425C41.6395 54.616 41.5098 54.303 41.279 54.0722C41.0482 53.8413 40.7351 53.7117 40.4087 53.7117L34.5546 53.7104C34.395 53.6616 34.2271 53.646 34.0613 53.6647C33.8955 53.6834 33.7353 53.736 33.5906 53.8192C33.5594 53.8374 33.5416 53.8679 33.5125 53.8883C33.3347 53.9853 33.1841 54.1251 33.0742 54.2951C32.9643 54.4652 32.8986 54.66 32.8833 54.8619L32.4391 61.7413C32.4287 61.9026 32.4501 62.0644 32.5022 62.2174C32.5543 62.3705 32.636 62.5117 32.7427 62.6332C32.8494 62.7546 32.979 62.8538 33.1241 62.9252C33.2691 62.9965 33.4268 63.0386 33.5882 63.049C33.6152 63.0508 33.6422 63.0515 33.6687 63.0515C33.9812 63.0512 34.2819 62.9321 34.5098 62.7182C34.7377 62.5044 34.8757 62.2119 34.8959 61.9L35.1333 58.2214C37.2996 60.6222 40.1428 62.3099 43.2878 63.0619C46.4329 63.8139 49.732 63.5949 52.75 62.4338C55.768 61.2727 58.3632 59.2239 60.1932 56.5579C62.0231 53.8918 63.002 50.7336 63.0005 47.5C63.0005 47.1735 62.8709 46.8605 62.64 46.6297C62.4092 46.3988 62.0962 46.2692 61.7697 46.2692Z" fill="white"/>
</g>
<defs>
<clipPath id="clip0_247_10084">
<rect width="94" height="94" fill="white" transform="translate(0 0.5)"/>
</clipPath>
</defs>
</svg>
